# Blender v2.82 (sub 7) OBJ File: ''
# www.blender.org
mtllib untitled.mtl
o Icosphere
v 1.534235 -0.616616 0.691340
v -1.009870 -0.504436 0.896109
v 0.347526 0.570951 0.994685
v -1.228364 1.117828 -0.691461
v 0.151745 2.151587 -0.222072
v -0.061887 -1.666520 0.711486
v 0.903656 -1.835207 0.309011
v 1.807318 -1.134226 0.000000
v 0.934221 -1.688143 -0.530769
v -1.116985 -1.835202 0.000000
v -1.826585 -1.100892 0.223207
v -0.151745 -2.151587 -0.222072
v 2.165850 0.098274 -0.000000
v -1.314418 -0.866716 -0.758414
v -2.165850 -0.098274 -0.000000
v 1.534235 -0.616616 -0.691340
v 0.347526 0.570951 -0.994685
v -1.228364 1.117828 0.691461
v -1.807318 1.134226 0.000000
v 1.826585 1.100892 -0.223207
v 0.966216 1.591767 0.594510
v 1.116985 1.835202 0.000000
v -0.881698 2.009975 0.000000
vt 0.818181 0.000000
vt 0.772726 0.078731
vt 0.849398 0.103390
vt 0.743212 0.185071
vt 0.681818 0.078731
vt 0.636363 0.157461
vt 0.090909 0.000000
vt 0.045454 0.078731
vt 0.136363 0.078731
vt 0.636363 0.236191
vt 0.933037 0.198938
vt 0.837171 0.282029
vt 0.304704 0.314921
vt 0.181818 0.314921
vt 0.181818 0.393651
vt 0.435555 0.282029
vt 0.379522 0.444867
vt 0.590909 0.393651
vt 0.604115 0.314921
vt 0.529568 0.444867
vt 0.318182 0.393651
vt 0.090909 0.314921
vt 0.954545 0.393651
vt 0.863635 0.393651
vt 0.909090 0.472382
vt 0.968023 0.314921
vt 0.750134 0.354520
vt 0.681818 0.393651
vt 0.727272 0.472382
vt 0.529514 0.185071
vt 0.302552 0.175935
vt 0.181818 0.236191
vt 0.489254 0.097342
vt 0.149570 0.157461
vt 0.023947 0.198938
vt 0.438659 0.027515
vt 0.288613 0.027515
vt 0.227273 0.078731
vt 0.590909 0.078731
vt 0.636363 0.000000
vn 0.0358 -0.8882 0.4581
vn 0.6032 -0.5057 0.6168
vn -0.1765 -0.8664 0.4672
vn 0.8276 -0.2407 0.5071
vn 0.0320 -0.1313 0.9908
vn -0.5912 0.6249 -0.5099
vn -0.0214 0.4369 -0.8993
vn 0.3571 0.5700 -0.7400
vn 0.2813 0.4493 -0.8479
vn -0.2437 0.6515 -0.7184
vn -0.5912 0.6249 0.5099
vn 0.0070 0.8280 0.5607
vn -0.1031 0.6340 0.7664
vn -0.0429 0.3871 0.9211
vn 0.1962 0.8890 0.4138
vn 0.7145 0.5650 0.4126
vn 0.6956 0.0763 -0.7144
vn 0.4051 0.1756 -0.8973
vn -0.1751 0.0408 -0.9837
vn -0.7459 0.2170 -0.6297
vn -0.7459 0.2170 0.6297
vn -0.1532 0.1033 0.9828
vn 0.3706 0.1356 0.9188
vn 0.6174 0.1922 0.7628
vn 0.7421 0.3748 0.5558
vn 0.0664 -0.1841 -0.9807
vn 0.0284 -0.1940 -0.9806
vn -0.6368 0.0536 -0.7692
vn -0.7820 -0.3754 -0.4976
vn -0.6086 0.0181 0.7933
vn -0.6200 -0.0353 0.7838
vn 0.1072 -0.1441 0.9837
vn 0.8276 -0.2407 -0.5071
vn -0.0687 -0.4366 -0.8970
vn -0.3631 -0.6192 -0.6962
vn -0.6969 -0.5248 -0.4888
vn -0.3853 -0.5884 0.7109
vn -0.3661 -0.4298 0.8254
vn 0.6555 -0.4571 -0.6012
vn 0.5827 -0.8039 -0.1196
vn 0.3520 -0.9241 -0.1490
vn 0.2862 -0.4185 0.8619
usemtl None
s off
f 12/1/1 7/2/1 6/3/1
f 1/4/2 7/5/2 8/6/2
f 12/7/3 6/8/3 10/9/3
f 1/4/4 8/6/4 13/10/4
f 2/11/5 6/3/5 3/12/5
f 4/13/6 19/14/6 23/15/6
f 17/16/7 4/13/7 5/17/7
f 22/18/8 20/19/8 5/20/8
f 20/19/9 17/16/9 5/20/9
f 5/17/10 4/13/10 23/21/10
f 19/14/11 18/22/11 23/15/11
f 23/23/12 21/24/12 5/25/12
f 23/23/13 18/26/13 21/24/13
f 18/26/14 3/12/14 21/24/14
f 21/27/15 22/28/15 5/29/15
f 21/27/16 20/19/16 22/28/16
f 13/10/17 16/30/17 20/19/17
f 16/30/18 17/16/18 20/19/18
f 17/16/19 14/31/19 4/13/19
f 15/32/20 19/14/20 4/13/20
f 15/32/21 18/22/21 19/14/21
f 2/11/22 3/12/22 18/26/22
f 1/4/23 21/27/23 3/12/23
f 1/4/24 13/10/24 21/27/24
f 13/10/25 20/19/25 21/27/25
f 16/30/26 9/33/26 17/16/26
f 9/33/27 14/31/27 17/16/27
f 14/31/28 15/32/28 4/13/28
f 14/31/29 11/34/29 15/32/29
f 15/32/30 2/35/30 18/22/30
f 15/32/31 11/34/31 2/35/31
f 3/12/32 6/3/32 1/4/32
f 8/6/33 16/30/33 13/10/33
f 12/36/34 14/31/34 9/33/34
f 12/37/35 10/38/35 14/31/35
f 10/38/36 11/34/36 14/31/36
f 10/9/37 6/8/37 11/34/37
f 6/8/38 2/35/38 11/34/38
f 8/6/39 9/39/39 16/30/39
f 8/6/40 7/5/40 9/39/40
f 7/5/41 12/40/41 9/39/41
f 7/2/42 1/4/42 6/3/42
